<?xml version="1.0" encoding="UTF-8"?>
<svg id="Layer_2" data-name="Layer 2" xmlns="http://www.w3.org/2000/svg" viewBox="0 0 49.5 49.5">
  <defs>
    <style>
      .cls-1 {
        fill: #231f20;
      }

      .cls-2 {
        fill: #d2d0c3;
      }
    </style>
  </defs>
  <g id="Layer_1-2" data-name="Layer 1">
    <g>
      <rect class="cls-2" width="49.5" height="49.5"/>
      <path class="cls-1" d="M34.6,15.26c-.32.12-.53.35-.65.68-.12.33-.18.86-.18,1.58v14.33c0,.72.06,1.25.18,1.58.12.33.33.56.65.68.31.12.82.2,1.52.23v.58c-.9-.06-2.13-.08-3.67-.08-1.66,0-2.89.03-3.7.08v-.58c.7-.03,1.2-.1,1.51-.23s.52-.35.64-.68c.12-.33.18-.86.18-1.58v-15.46l-6.96,18.66h-.47l-7.28-18.75v15.25c0,.74.07,1.3.2,1.68.13.38.38.65.74.81.36.16.92.26,1.69.29v.58c-.69-.06-1.67-.08-2.95-.08-1.15,0-2.04.03-2.68.08v-.58c.67-.03,1.16-.12,1.49-.29.32-.16.55-.43.67-.81.12-.38.18-.94.18-1.68v-14.04c0-.72-.06-1.25-.18-1.58-.12-.33-.33-.55-.65-.68-.32-.12-.82-.2-1.52-.23v-.58c.63.06,1.52.08,2.68.08,1.02,0,1.84-.03,2.47-.08l6.35,16.76,6.21-16.67h1.37c1.54,0,2.76-.03,3.67-.08v.58c-.7.03-1.2.1-1.52.23Z"/>
    </g>
  </g>
</svg>