<?xml version="1.0" encoding="UTF-8"?>
<svg id="Layer_2" data-name="Layer 2" xmlns="http://www.w3.org/2000/svg" viewBox="0 0 1391.7 236.1">
  <g id="Layer_1-2" data-name="Layer 1">
    <g>
      <path d="M235.55,13.46c-3.5,1.36-5.9,3.86-7.2,7.51-1.31,3.66-1.96,9.5-1.96,17.53v159.07c0,8.04.65,13.88,1.96,17.53,1.3,3.66,3.7,6.16,7.2,7.52,3.5,1.36,9.1,2.19,16.83,2.5v6.42c-10.02-.63-23.59-.94-40.71-.94-18.37,0-32.04.31-41.02.94v-6.42c7.72-.31,13.31-1.15,16.75-2.5,3.44-1.36,5.82-3.86,7.12-7.52,1.3-3.65,1.96-9.5,1.96-17.53V25.99l-77.19,207.13h-5.17L33.35,25.05v169.25c0,8.25.73,14.46,2.19,18.63,1.46,4.18,4.2,7.18,8.22,9,4.02,1.83,10.25,2.9,18.71,3.21v6.42c-7.62-.63-18.53-.94-32.72-.94-12.74,0-22.65.31-29.75.94v-6.42c7.41-.31,12.92-1.38,16.52-3.21,3.6-1.83,6.08-4.83,7.44-9,1.36-4.17,2.04-10.38,2.04-18.63V38.51c0-8.04-.65-13.88-1.96-17.53-1.31-3.65-3.71-6.16-7.2-7.51-3.5-1.36-9.11-2.19-16.83-2.51v-6.42c6.99.63,16.91.94,29.75.94,11.27,0,20.4-.31,27.4-.94l70.45,186L196.49,5.48h15.19c17.12,0,30.69-.31,40.71-.94v6.42c-7.73.31-13.34,1.15-16.83,2.51Z"/>
      <path d="M435.8,13.78c15.29,9.19,27.14,22.52,35.54,40,8.4,17.48,12.6,38.28,12.6,62.39s-4.33,44.46-13,62.63c-8.67,18.16-20.72,32.25-36.17,42.27-15.45,10.02-33.04,15.03-52.76,15.03s-38.18-4.59-53.47-13.78c-15.29-9.18-27.14-22.52-35.54-40-8.4-17.48-12.6-38.28-12.6-62.39s4.33-44.46,12.99-62.63c8.66-18.16,20.72-32.25,36.17-42.27,15.45-10.02,33.04-15.03,52.76-15.03s38.17,4.59,53.47,13.78ZM344.91,20.12c-10.44,9.55-18.47,22.86-24.11,39.92-5.64,17.06-8.45,36.61-8.45,58.63s3.13,41.8,9.39,58.71c6.26,16.91,14.8,29.96,25.6,39.14,10.8,9.19,22.78,13.78,35.93,13.78s25.7-4.78,36.09-14.33c10.38-9.55,18.4-22.86,24.03-39.92,5.64-17.07,8.45-36.61,8.45-58.63s-3.13-41.8-9.39-58.71-14.77-29.95-25.52-39.14c-10.75-9.18-22.7-13.78-35.85-13.78s-25.73,4.78-36.17,14.33Z"/>
      <path d="M676.67,5.48c9.6,0,17.64-.31,24.11-.94v6.42c-10.75,2.4-19.2,11.69-25.36,27.87l-75.31,194.3h-5.17l-78.28-201.65c-5.22-13.25-12.58-20.09-22.08-20.51v-6.42c8.66.63,20.09.94,34.29.94,18.37,0,32.04-.31,41.02-.94v6.42c-8.14.31-13.96,1.31-17.46,2.97-3.5,1.67-5.25,4.65-5.25,8.92,0,3.55,1.25,8.56,3.76,15.03l58.09,154.06,52.29-135.43c4.28-11.06,6.42-19.78,6.42-26.15,0-6.78-2.3-11.66-6.89-14.64-4.59-2.97-11.64-4.56-21.14-4.78v-6.42c12.21.63,24.53.94,36.95.94Z"/>
      <path d="M776.79,13.46c-3.5,1.36-5.9,3.86-7.2,7.51-1.31,3.66-1.96,9.5-1.96,17.53v159.07c0,8.04.65,13.88,1.96,17.53,1.3,3.66,3.7,6.16,7.2,7.52,3.49,1.36,9.11,2.19,16.83,2.5v6.42c-9.81-.63-23.38-.94-40.71-.94-18.37,0-32.04.31-41.02.94v-6.42c7.72-.31,13.33-1.15,16.83-2.5,3.5-1.36,5.9-3.86,7.2-7.52,1.3-3.65,1.96-9.5,1.96-17.53V38.51c0-8.04-.65-13.88-1.96-17.53-1.31-3.65-3.71-6.16-7.2-7.51-3.5-1.36-9.11-2.19-16.83-2.51v-6.42c8.87.63,22.54.94,41.02.94,17.32,0,30.89-.31,40.71-.94v6.42c-7.72.31-13.34,1.15-16.83,2.51Z"/>
      <path d="M1003.89,231.24c-4.91,3.23-11.38,4.85-19.42,4.85-8.77,0-15.97-2.56-21.6-7.67-5.64-5.11-9.92-14.14-12.84-27.09l-7.05-31.94c-2.5-11.17-4.88-19.75-7.12-25.75-2.25-6-5.64-10.8-10.18-14.4-4.54-3.6-10.83-5.4-18.87-5.4h-30.53v73.74c0,8.04.65,13.88,1.96,17.53,1.3,3.66,3.7,6.16,7.2,7.52,3.49,1.36,9.11,2.19,16.83,2.5v6.42c-9.81-.63-23.38-.94-40.71-.94-18.37,0-32.04.31-41.02.94v-6.42c7.72-.31,13.33-1.15,16.83-2.5,3.5-1.36,5.9-3.86,7.2-7.52,1.3-3.65,1.96-9.5,1.96-17.53V38.51c0-8.04-.65-13.88-1.96-17.53-1.31-3.65-3.71-6.16-7.2-7.51-3.5-1.36-9.11-2.19-16.83-2.51v-6.42c8.98.63,22.02.94,39.14.94,8.35,0,17.56-.1,27.63-.31,10.07-.21,16.99-.31,20.74-.31,16.7,0,30.84,2.43,42.43,7.28s20.3,11.48,26.15,19.88c5.85,8.4,8.77,17.93,8.77,28.57,0,8.35-1.96,16.78-5.87,25.29-3.91,8.51-10.54,16.13-19.88,22.86-9.34,6.73-21.53,11.25-36.56,13.54l3.91.63c9.6,1.57,17.27,3.94,23.02,7.12,5.74,3.19,10.31,7.54,13.7,13.07,3.39,5.53,6.13,12.89,8.22,22.08l7.99,32.72c1.36,6.58,2.74,11.72,4.15,15.42,1.41,3.71,3.08,6.45,5.01,8.22,1.93,1.78,4.36,2.66,7.28,2.66,3.55,0,6.47-.91,8.77-2.74,2.3-1.82,5.22-4.98,8.77-9.47l4.85,3.6c-5.01,7.2-9.97,12.42-14.87,15.66ZM931.71,110.53c8.14-4.59,13.78-10.75,16.91-18.48,3.13-7.72,4.7-17.01,4.7-27.87,0-17.53-4.18-30.79-12.53-39.77-8.35-8.98-21.92-13.47-40.71-13.47-6.68,0-11.69.76-15.03,2.27-3.34,1.51-5.64,4.2-6.89,8.06-1.25,3.86-1.88,9.6-1.88,17.22v78.91h21.61c14.4,0,25.68-2.29,33.82-6.89Z"/>
      <path d="M1024.24,45.56c0-12.53-.78-26.2-2.35-41.02,17.74.63,47.91.94,90.49.94s72.28-.31,90.02-.94c-1.46,15.24-2.19,28.91-2.19,41.02,0,10.75.31,19.52.94,26.3h-7.36c-1.67-16.6-3.78-28.89-6.34-36.87-2.56-7.98-7.05-13.83-13.47-17.53-6.42-3.7-16.26-5.56-29.51-5.56h-17.38v182.4c0,8.87.83,15.37,2.5,19.49,1.67,4.12,4.7,6.97,9.08,8.53s11.32,2.5,20.82,2.82v6.42c-11.27-.63-26.98-.94-47.13-.94-21.4,0-37.21.31-47.44.94v-6.42c9.5-.31,16.44-1.25,20.82-2.82,4.38-1.57,7.41-4.41,9.08-8.53,1.67-4.12,2.51-10.62,2.51-19.49V11.9h-17.38c-13.26,0-23.09,1.85-29.51,5.56-6.42,3.71-10.91,9.55-13.47,17.53-2.56,7.98-4.67,20.28-6.34,36.87h-7.36c.63-6.78.94-15.55.94-26.3Z"/>
      <path d="M1389.5,190.54c0,12.11.73,25.78,2.19,41.02-14.51-.63-38.98-.94-73.43-.94-41.02,0-72.02.31-93,.94v-6.42c7.72-.31,13.33-1.15,16.83-2.5,3.5-1.36,5.9-3.86,7.2-7.52,1.3-3.65,1.96-9.5,1.96-17.53V38.51c0-8.04-.65-13.88-1.96-17.53-1.31-3.65-3.71-6.16-7.2-7.51-3.5-1.36-9.11-2.19-16.83-2.51v-6.42c20.98.63,51.98.94,93,.94,31.42,0,53.75-.31,67.01-.94-1.46,13.99-2.19,26.62-2.19,37.89,0,8.35.31,14.98.94,19.88h-7.36c-1.57-13.88-3.52-24.21-5.87-31-2.35-6.78-6.32-11.72-11.9-14.8-5.58-3.08-14.01-4.62-25.29-4.62h-26.62c-7.72,0-13.34.63-16.83,1.88-3.5,1.25-5.9,3.68-7.2,7.28-1.31,3.6-1.96,9.42-1.96,17.46v75.62h21.29c10.75,0,17.9-3.21,21.45-9.63,3.55-6.42,5.74-12.97,6.58-19.65.83-6.68,1.41-11.01,1.72-12.99h7.36c-.73,10.54-1.1,20.62-1.1,30.22l.16,15.34c0,10.86.63,26.04,1.88,45.56h-7.36c-.21-1.46-.81-6.63-1.8-15.5-.99-8.87-3.89-15.58-8.69-20.12-4.8-4.54-11.53-6.81-20.2-6.81h-21.29v77.03c0,8.04.65,13.86,1.96,17.46,1.3,3.6,3.7,6.03,7.2,7.28,3.49,1.25,9.11,1.88,16.83,1.88h23.48c13.36,0,23.51-1.77,30.45-5.32,6.94-3.55,11.95-9.24,15.03-17.07,3.08-7.83,5.45-19.31,7.12-34.44h7.36c-.63,5.74-.94,13.46-.94,23.17Z"/>
    </g>
  </g>
</svg>